<svg width="24" height="24" viewBox="0 0 24 24" fill="none" xmlns="http://www.w3.org/2000/svg" aria-hidden="true">
  <path d="M8 12C8 10.8954 8.89543 10 10 10H14C15.1046 10 16 10.8954 16 12V16C16 17.1046 15.1046 18 14 18H10C8.89543 18 8 17.1046 8 16V12Z" fill="currentColor"/>
  <path d="M6 8C6 6.89543 6.89543 6 8 6H16C17.1046 6 18 6.89543 18 8V10C18 11.1046 17.1046 12 16 12H8C6.89543 12 6 11.1046 6 10V8Z" fill="currentColor"/>
  <path d="M4 4C4 2.89543 4.89543 2 6 2H18C19.1046 2 20 2.89543 20 4V6C20 7.1046 19.1046 8 18 8H6C4.89543 8 4 7.1046 4 6V4Z" fill="currentColor"/>
</svg>
