<?xml version="1.0" encoding="utf-8" ?><svg xmlns="http://www.w3.org/2000/svg" xmlns:xlink="http://www.w3.org/1999/xlink" width="5290" height="3171" viewBox="0 0 5290 3171"><path d="M4529.31 0L4547.82 0C4585.39 6.00994 4612.25 20.0021 4632.04 41.2715C4664 75.6395 4684.11 129.067 4693.35 168.387C4694.71 184.941 4684.93 201.19 4689.68 217.609C4694.51 234.282 4728.49 261.738 4716.51 277.928C4692.8 308.784 4679.5 314.387 4690.69 350.214C4699.67 378.984 4711.54 414.011 4695.26 442.145C4680.44 467.745 4655.56 472.251 4616.69 461.988C4639.96 507.808 4635.02 501.754 4622.05 547.646C4609.3 592.748 4611.11 610.993 4576.96 653.889C4602.35 695.224 4641.75 708.056 4677.41 742.514C4702.56 766.817 4730.32 803.059 4756.88 828.84C4777.63 848.978 4789.83 883.574 4813.77 904.631C4828.89 928.627 4894.13 974.288 4902.28 997.474C4918.1 1042.44 4937.45 1111.67 4916.08 1156.04C4910.58 1167.46 4851.01 1199.21 4831.53 1193.54C4827.08 1183.8 4839.54 1174.62 4844.31 1163.78C4834.07 1162.73 4823.52 1162.57 4816.52 1158.32C4807.09 1135.83 4905.65 1115.62 4809.46 1058.88C4810.62 1083.32 4819.28 1115.35 4791.6 1133.78L4787.19 1134.4C4779.46 1124.69 4773.68 1103.97 4769.15 1092.89C4762.6 1076.83 4747.37 1055.63 4743 1039.91C4737.45 1019.92 4741.98 994.589 4737.88 974.214C4716.36 959.303 4706.96 956.895 4686.61 939.295L4691.76 963.597C4655.6 955.788 4656.69 957.644 4630.34 942.788C4633.06 948.42 4637.18 954.304 4634.81 959.739C4600.48 969.205 4548.13 902.23 4534.78 898.501C4526.89 901.719 4526.53 904.37 4524.06 910.11C4503.95 902.266 4457.55 841.914 4448.02 826.539C4441.48 851.051 4423.71 900.244 4409.18 923.185C4485.14 979.094 4535.43 1044.34 4587.11 1109.11C4611.18 1139.29 4634.48 1171.85 4646.44 1204.5C4657.67 1241.02 4665.99 1280.16 4665.29 1317.25C4663.51 1361.96 4689.63 1399.77 4701.98 1443.13C4712.67 1480.64 4713.94 1518.26 4718.06 1558.25C4722.45 1600.84 4716.84 1612.7 4797.31 1582.4C4818.27 1574.51 4837.4 1548.59 4855.98 1537.99C4870.93 1527.25 4888.02 1528.37 4909.29 1524.2C4923.11 1521.49 4928.48 1515.07 4943.56 1515.33C4953.7 1518.01 4949.79 1516 4955.73 1521.58C4958.39 1537.47 4925.77 1543.8 4929.96 1559.16C4943.45 1560.5 4971.77 1542.97 4965.14 1573.93C4963.11 1583.43 4943.53 1584.85 4938.63 1594.27L4940.6 1596.63C4953.45 1597.83 4952.91 1596.53 4961.16 1600.81C4966.27 1609.46 4962.18 1614.86 4958.5 1623.29C4938.23 1669.66 4889.94 1681.34 4829.58 1704.36C4792.91 1718.35 4755.24 1751.88 4714.55 1768.06C4795.14 1831.46 4784.52 1884.96 4784.03 1961.11L4783.47 2078.01C4783.44 2097.31 4783.21 2117.08 4783.22 2136.27C4783.22 2150.11 4845.63 2144.11 4854.61 2139.36C4866.98 2132.83 4862.26 2102.15 4862.5 2091.81L4863.5 1988.41C4863.59 1966.14 4861.64 1941.87 4870.9 1920.25C4883.85 1890.02 4916.91 1858.73 4965.19 1845.24C4974.21 1821.05 4981.2 1805.94 5000.94 1784.1C5063.53 1714.54 5175.6 1718.61 5241.41 1784.41C5279.61 1822.61 5286.1 1859.76 5287.53 1903.8C5287.89 1914.79 5287.33 1933.46 5290 1943.6L5290 2644.33C5280.03 2702.98 5291.53 2756.64 5232.04 2808.05C5212.6 2824.85 5180.22 2833.3 5162.23 2850.51C5139.66 2878.45 5139.54 2901.69 5094.94 2922.42C5035.53 2950.48 4965.83 2939.17 4923.43 2904.08C4854.58 2847.08 4865.57 2780.02 4863.54 2714.25C4862.01 2664.56 4867.95 2608.24 4861.79 2559.21C4846.76 2558.87 4803.83 2557.04 4790.76 2558.94C4783.96 2567.19 4785.36 2590.44 4785.5 2601.21C4786.41 2676.94 4799.23 2756.35 4715.3 2820.01C4704.17 2828.45 4672.74 2840.29 4656.87 2846.75C4640.46 2879.94 4624.12 2914.32 4570.02 2932.73C4503.03 2955.53 4434.41 2921.71 4405.56 2886.46C4378.69 2853.65 4387.78 2813.22 4390.58 2778.06C4390.98 2773.47 4388.84 2772.17 4384.16 2770.21C4362.15 2770.61 4323.06 2798.87 4307.74 2808.68C4218.75 2866.02 4144.38 2939.52 3998.66 2940.85C3895.18 2941.79 3802.65 2920.38 3729.48 2874.18C3444.48 2694.24 3404.59 2398.64 3496.87 2167.26C3500.89 2157.19 3533.77 2078.04 3533.81 2078.24C3528.37 2084.52 3528.66 2088.63 3524.46 2094.25C3507.92 2116.38 3497.25 2138.93 3469.11 2156.89C3453.76 2166.69 3421.94 2177.83 3409.89 2186.05C3406.54 2227.26 3407.2 2274.39 3407.2 2315.82L3409.62 2571.26C3409.66 2648.11 3429.92 2765.59 3329 2825.71C3317.08 2832.81 3296.27 2840.28 3282.08 2846.79C3260.04 2889.08 3214.48 2953.1 3114.85 2935.27C3028.2 2919.75 2992.12 2846.63 2976.85 2800.73C2973.01 2789.84 2973.08 2778.12 2966.49 2768.38L2963.52 2768.02C2953.53 2778.31 2951.82 2786.81 2944.06 2796.03C2927.12 2816.13 2894.85 2832.13 2864.74 2844.63C2851.31 2866.28 2843.71 2886.4 2819.6 2904.94C2764.23 2947.5 2681.77 2950.83 2628.15 2904.67C2588.76 2870.76 2579 2834.47 2555.69 2796.76C2553.4 2793.12 2544.16 2785.72 2537.42 2784.42C2499.98 2779.84 2390.8 2781.84 2356.01 2784.4C2334.96 2803.48 2314.26 2823.54 2288.28 2839.73C2237.61 2871.29 2159.45 2968.73 2067.62 2926.05C1978.76 2884.75 1961.29 2799.12 1970.41 2736.72C1971.47 2729.41 1972.13 2715.56 1967.08 2709.35L1963.63 2709.31C1944.51 2721.15 1931.62 2744.45 1915.82 2757.24C1894.13 2775.09 1866.51 2793.68 1847.05 2812.25C1781.06 2875.19 1705.44 2942.36 1564.82 2940.04C1304.84 2935.74 1159.27 2748.2 1137.65 2613.09C1133.14 2584.9 1130.21 2557.57 1124.62 2531.2C1111.31 2562.88 1100.18 2585 1077.12 2615.02C1066.76 2628.5 1052.68 2644.92 1044 2658.29C1062.86 2716.12 1105.89 2754.66 1144.32 2807.1C1204.88 2889.75 1198.84 2991.61 1111.91 3066.91C1064.14 3108.28 981.337 3160.01 895.465 3171L879.718 3171C781.972 3144.78 754.164 3056.25 710.531 3002.73C696.953 2986.07 676.301 2943.09 637.137 2942.76C524.366 2941.82 416.572 2937.43 326.158 2891.97C118.513 2793.91 36.5004 2629.29 9.06869 2477.77C5.23578 2456.6 4.82389 2434.53 0.340856 2413.72L0 2412.21L0 2343C2.41332 2335.83 2.71461 2326.13 3.55785 2318.62C16.5479 2202.79 63.5952 2083.16 172.087 1985.51C185.577 1971.34 214.993 1954.7 227.041 1940.98C286.347 1873.43 363.22 1804.57 480.945 1769.81C512.035 1760.63 556.048 1754.12 591.109 1745.37C578.14 1741.92 551.113 1737.48 536.127 1735.16C496.149 1728.95 465.027 1718.1 431.203 1703.77C345.8 1667.6 270.138 1609.01 253.696 1545.24C239.856 1491.57 245.565 1406.15 297.986 1358.22C313.316 1344.2 350.239 1331.99 366.412 1317.88C377.808 1307.95 383.907 1293.59 393.37 1283.16C398.086 1277.96 410.827 1266.74 417.196 1262.47C431.497 1252.89 410.394 1241.18 395.079 1231.06C323.202 1183.53 280.848 1113.64 260.305 1050.49C224.77 941.255 244.928 804.927 328.598 704.822C341.966 684.262 381.782 666.346 398.61 648.658C464.544 579.356 524.835 511.117 668.28 494.881C752.686 485.327 842.736 506.578 912.675 534.791C987.392 564.931 1042.51 609.141 1054.59 663.265C1071.4 720.86 1070.26 793.232 1002.12 840.103C965.337 865.403 894.194 890.843 905.75 932.816C907.629 939.639 936.3 949.767 944.654 954.801C959.026 963.459 971.291 974.056 983.649 983.8C1092.45 1070.95 1090.2 1135.8 1119.56 1233.66C1168.25 1098.55 1221.75 964.499 1276.49 830.207L1309.34 747.864C1320.4 719.558 1326.45 698.802 1345.12 671.89C1369.31 637.036 1395.31 630.498 1432.09 603.38C1447.12 588.583 1457.31 571.611 1471.71 556.558C1510.26 516.26 1569.93 492.724 1643.73 522.057C1680.43 536.643 1695.83 548.846 1711.94 574.48C1733.92 609.461 1748.14 646.245 1763.43 682.581L1830.4 843.379L1942.01 1111.72C1963.03 1162.03 1985.19 1211.66 2004.23 1262.27C2007.27 1270.36 2019.12 1309.53 2027.31 1312.62C2037.82 1307.65 2072.26 1203.75 2077.93 1188.87L2200.5 880.433L2241.75 775.485C2262.42 722.704 2281.04 663.11 2341.61 620.525C2351.18 614.035 2368.69 606.209 2376.31 599.14C2392.96 583.706 2404.13 564.797 2420.26 549.303C2453.5 517.368 2506.2 492.146 2569.92 513.543C2601.26 524.067 2634.06 545.992 2648.25 565.604C2669.76 595.322 2682.29 628.263 2695.07 659.426L2730.77 743.941L2823.76 972.429C2838.35 1007.94 2860.29 1058.26 2875.29 1092.96C2891.2 1129.76 2952 1325.02 2987.37 1336.39C2993.58 1334.11 3033.38 1291.6 3042.68 1283.92C3059.4 1270.1 3067.43 1263.64 3089.69 1251.83C3032.06 1208.4 2998.73 1189.41 2965.76 1133.75C2889.21 1004.54 2876.83 859.669 2965.62 731.465C2984.17 704.685 3015.69 685.135 3042.56 661.791C3104.02 595.81 3158.67 526.915 3285.98 498.987C3428.77 467.666 3610.29 532.493 3673.7 609.086C3735.8 684.105 3730.36 788.096 3636.91 853.452C3606.85 874.473 3559.48 906.186 3540.01 930.747L3538.54 932.652C3558.1 942.734 3577.26 949.781 3598.34 961.286C3688.73 1009.66 3725.16 1078.33 3748.52 1147.08C3794.9 1283.63 3759.3 1425.02 3649.28 1547.61C3630.65 1568.37 3593.82 1582.91 3578.77 1597.69C3518.92 1656.43 3464.39 1724.83 3337.47 1736.25C3203.7 1752.27 3091.98 1709.02 3007.13 1649.19C2988.35 1635.94 2968.68 1612 2945.77 1602.94C2919.6 1603.06 2884.76 1624.83 2876.1 1637.95C2857.36 1666.38 2844.4 1694.6 2800.38 1713.34C2779.42 1722.27 2748.67 1726.47 2723.12 1722.63C2641.41 1710.35 2607.34 1653.56 2584.78 1610.71C2576.96 1599.07 2563.03 1560.12 2537.5 1559.19C2490.4 1557.61 2436.4 1555.98 2390.21 1562.42C2354.27 1567.44 2321.48 1599.54 2296.42 1614.67C2284.04 1622.15 2274.45 1627.17 2260.63 1633.62C2252.81 1645.21 2246.65 1659.46 2238.18 1671.07C2178.95 1752.19 2060.33 1737.13 2007.01 1664.58C1993.77 1646.57 1984.16 1626.48 1972.68 1608.01C1922.81 1624.26 1932.82 1636.19 1913.93 1665.31C1904.06 1680.53 1884.91 1696.48 1862.87 1706.15C1727.24 1765.71 1654.52 1651.29 1625.06 1591.49C1615.67 1572.46 1607.52 1563.07 1571.09 1563.99C1537.24 1564.82 1501.59 1563.48 1468.1 1563.58C1447.11 1563.65 1421.3 1564.85 1405.1 1572.56C1390.26 1579.62 1381.17 1595.4 1369.59 1604.41C1355.12 1615.67 1336.03 1623.37 1320.69 1634.04C1193.16 1777.32 1132.89 1696.87 1045.99 1596.51C1035.85 1584.79 1015.02 1565.67 1000.22 1554.44C982.15 1567.12 949.532 1589.91 934.689 1603.36C899.558 1635.19 863.032 1675.26 813.314 1700.03C783.838 1714.72 725.849 1733.29 690.694 1745.01C714.865 1750.08 788.823 1764.5 807.228 1770.29C948.61 1814.77 1050.55 1920 1099.94 2008.69C1111.65 2029.72 1119.14 2054.76 1130.58 2076.97C1151.87 2008.56 1103.21 1912.47 1200.72 1860.66C1233.03 1846.23 1248.25 1833.23 1261.65 1810.24C1281.1 1776.87 1348.43 1734 1412.68 1741.96C1575.05 1762.09 1563.77 1895.98 1563.68 1970.41L1563.56 2074.39L1563.14 2320.41C1562.92 2359.3 1559.02 2409.36 1568.68 2447.54C1572.98 2464.57 1604.57 2488.13 1622.08 2502.82C1634.58 2465.97 1629.49 2407.62 1628.92 2368.14L1627.62 2092.41C1627.85 2045.14 1626.55 1996.86 1631.16 1949.78C1633.82 1923.85 1659.92 1875.65 1697.46 1859.82C1753.28 1836.29 1744.38 1806.09 1785.87 1775.99C1811.99 1757.04 1854.81 1747.05 1896.29 1744.82C1997.72 1739.36 2043.77 1804.87 2057.45 1854.32C2069.23 1902.64 2064.34 1957.07 2064.28 2006.39L2064.1 2268.71C2063.69 2325.78 2057.73 2369.72 2065.79 2427.44C2075.18 2411.04 2083.6 2382.57 2090.03 2364.54L2121.84 2279.23L2223.78 2012.96C2244.44 1959.2 2253.51 1879.38 2339.33 1849.02C2375.56 1836.21 2376.14 1821.88 2393.71 1800.65C2415.26 1774.6 2450.34 1741.55 2501.81 1735.41C2548.73 1730.37 2611.7 1759.25 2632.38 1783.43C2674.65 1832.86 2695.83 1900.19 2711.2 1954.42C2736.74 1902.69 2729.64 1876.87 2813.13 1842.43C2834.13 1817.88 2844.52 1792.9 2878.77 1772.35C2933.66 1739.42 3026.12 1755.85 3098.31 1755.71L3433.17 1755.56C3496.04 1755.77 3528.41 1743.3 3579.25 1777.1C3660.41 1831.04 3659.14 1897.71 3654.97 1965.97C3661.52 1956.63 3669.1 1945.84 3676.56 1936.74C3735.5 1864.81 3836.8 1788.79 3965.87 1760.83C4000.39 1753.35 4024.9 1751.93 4059.45 1749.49C4184.84 1740.65 4267.39 1787.81 4350.84 1836.75C4368.51 1847.11 4391.13 1862.07 4415 1868.37C4419.83 1869.64 4427.45 1867.57 4430.94 1865.76C4456.16 1852.7 4465.98 1822.83 4478.22 1804.62C4491.01 1785.59 4502.06 1775.79 4524.41 1761.57C4549.37 1745.68 4592.22 1733.48 4597.07 1711.06C4602.78 1684.6 4587.67 1646.77 4572.43 1621.79C4565.38 1610.24 4555.54 1598.45 4548.22 1586.96C4543.97 1580.3 4550.64 1577.48 4543.32 1571.09C4536.93 1575.57 4537.66 1582.16 4532.22 1589.15C4512.86 1580.02 4494.99 1531.19 4489.71 1515.52L4473.72 1507.58C4452.62 1457.59 4466.29 1371.15 4455.39 1315.19C4435.81 1302.87 4368.9 1256.14 4353.15 1249.44C4347.58 1250.15 4294.07 1335.48 4292.62 1340.35C4273.24 1405.5 4263.27 1430.04 4184.3 1476.17C4184.86 1468.07 4187.08 1460.24 4179.09 1453.58L4175.26 1453.77L4170.13 1462.38C4152.77 1469.33 4137.54 1478.23 4121.02 1485.14C4085.71 1499.93 4008.3 1526.91 3987.84 1549.87C3965.5 1574.95 3997.12 1632.58 4011.07 1660.01C4057.18 1660.7 4086.28 1650.07 4123.08 1669.13C4123.75 1680.81 4123.35 1693.95 4123.44 1705.75C4097.06 1729.26 4085.3 1718.07 4046.31 1724.76C4004.43 1731.95 3957.44 1755.01 3913.95 1735.12C3887.49 1723.02 3875.22 1697.12 3856.82 1680.76C3814.03 1638.83 3762.84 1596.45 3742.21 1548.27C3733.83 1512.14 3738.33 1463.84 3795.88 1442.47C3815.71 1434.62 3851.33 1428.67 3862.38 1414.51C3877.17 1395.56 3899.71 1375.86 3892.15 1354.68L3891.36 1352.57C3914.38 1319.97 3952.54 1299.72 4012.73 1293.13C4032.02 1291.02 4054.46 1293.2 4072.9 1288.27C4081.09 1283.98 4082.5 1275.48 4082.92 1269.19C4087.42 1201.5 4120.25 1137.38 4133.76 1070.57C4051.73 995.148 4051.59 916.259 4078.15 828.854C4084.63 807.521 4105.11 774.099 4108.44 754.196C4113.92 721.509 4106.24 675.524 4100.58 642.719C4085.22 672.041 4064.28 694.311 4046.92 721.646C4037.21 736.935 4032.35 772.934 4026.46 791.46C4010.39 842.053 3993.83 894.039 3986.16 945.349C3982.92 975.797 4015.31 1022.96 3998.43 1058.79C3980.08 1095.94 3965.39 1154.47 3915.21 1180.53C3894.74 1191.16 3797.13 1167.16 3787.12 1150.64C3778.83 1136.95 3767.38 1105.21 3780.14 1091.3C3809.34 1059.47 3830.95 1088.79 3840.16 1107.8C3865.66 1047.15 3845.96 1025.24 3847.53 965.165C3848.1 943.387 3870.56 843.341 3861.42 831.843L3857.71 832.221C3851.15 838.695 3847.89 856.707 3845.67 865.043C3833.45 803.329 3861.43 762.813 3874.43 704.508C3860.91 715.179 3847.9 725.213 3833.77 735.589C3853.07 698.039 3858.07 657.511 3887.37 620.802C3891.32 615.847 3898.75 607.97 3900.08 603.183L3895.37 601.991C3884.53 603.86 3879.37 607.385 3870.8 611.833C3889.1 570.783 3935.8 549.265 3967.8 513.134C3997.11 480.041 3993.92 462.976 4028.46 429.04C4008.65 437.016 4005.4 442.33 3989.57 449.062L3986.8 448.095C3990.1 414.336 4050.76 380 4074.97 355.491C4089.78 340.495 4107.28 301.097 4123.28 282.018C4130.67 279.924 4131.43 279.663 4137.97 276.735C4141.76 272.061 4142.56 272.636 4142.25 268.021C4135.38 269.459 4132.68 269.911 4125.55 270.806C4120.35 266.829 4122.27 267.035 4122.56 260.42C4143.5 240.586 4189.15 228.776 4225.77 223.298C4231.5 219.554 4221.95 217.115 4227.36 209.252C4276.56 215.868 4265.2 211.919 4297.65 194.715C4303.09 191.828 4331.98 187.239 4341.6 182.223C4407.78 147.689 4397.93 87.2624 4444.74 44.4944C4469.12 22.0607 4483.82 7.57436 4529.31 0ZM500.389 2185.12C410.605 2202.32 437.926 2354.88 462.934 2397.09C496.868 2454.37 554.954 2503.8 666.841 2494.22C683.422 2491.03 694.358 2488.3 701.602 2477.72C740.008 2421.6 740.77 2336.59 706.861 2280.07C687.437 2247.69 637.115 2206.09 584.596 2191.6C555.825 2183.66 530.63 2183.92 500.389 2185.12ZM4264.05 2137.65C4251.64 2166.97 4234.18 2207.12 4187.28 2223.8C4135.35 2242.28 4082.54 2211.59 4040.81 2196.6C4011.96 2186.33 3965.16 2184.39 3935 2192.98C3915.08 2198.65 3903.99 2224.82 3899.86 2236.91C3875.84 2307.26 3889.13 2402.85 3962.73 2461.68C3988.84 2479.13 4027.22 2498.35 4066.89 2499.05C4180.32 2501.05 4218.41 2387.97 4328.55 2462.1C4338.76 2468.96 4349.8 2476.25 4360.05 2483.73C4352.11 2401.56 4355.39 2310.57 4355.71 2227.93L4356.05 2137.16C4356.08 2122.24 4354.49 2102.28 4356.67 2087.9L4354.49 2085.49C4317.29 2111.57 4310.58 2117.28 4264.05 2137.65ZM2966.44 2552.05C2965.91 2524.66 2968.45 2497.47 2968.4 2469.99L2967.9 2185.09C2925.38 2200.53 2847.73 2185.45 2809.14 2170.16C2845.73 2255.51 2880.66 2340.37 2913.66 2426.26L2944.7 2508.76C2949.48 2521.69 2957.04 2545.73 2964.02 2556.81L2966.12 2555.7L2966.44 2552.05Z"/><path fill="#FCB52C" d="M182.021 2081.11C227.278 1974.87 312.224 1863.99 473.154 1805.06C685.471 1727.3 896.442 1810.97 1001.21 1927.08C1022.67 1950.87 1046.53 1975.36 1062.96 2000.85C1145.51 2130.35 1165.39 2286.02 1132.88 2422.34C1116.52 2493.43 1083.1 2565.22 1025.77 2628.37C1003.18 2652.72 1000.48 2659.54 1017.94 2685.14C1047.76 2728.84 1078.61 2772.44 1112.14 2815.23C1148.6 2861.78 1161.02 2907.77 1146.98 2958.75C1134.94 3002.5 1091.69 3057.01 1001.28 3044.85C933.669 3035.76 910.521 2985.83 885.823 2952.99C864.372 2924.14 845.047 2896.4 825.533 2867.32C815.45 2852.3 808.964 2839.87 795.714 2825.65C765.707 2793.43 723.895 2808.54 675.828 2810.37C644.018 2811.59 616.919 2809.63 586.466 2805.11C446.435 2782.58 352.308 2727.07 280.623 2654.65C121.147 2493.54 109.734 2258.17 182.021 2081.11ZM666.841 2494.22C683.422 2491.03 694.358 2488.3 701.602 2477.72C740.008 2421.6 740.77 2336.59 706.861 2280.07C687.437 2247.69 637.115 2206.09 584.596 2191.6C555.825 2183.66 530.63 2183.92 500.389 2185.12C410.605 2202.32 437.926 2354.88 462.934 2397.09C496.868 2454.37 554.954 2503.8 666.841 2494.22Z"/><path fill="#FB6B6E" d="M182.021 2081.11C227.278 1974.87 312.224 1863.99 473.154 1805.06C685.471 1727.3 896.442 1810.97 1001.21 1927.08C1022.67 1950.87 1046.53 1975.36 1062.96 2000.85C1145.51 2130.35 1165.39 2286.02 1132.88 2422.34C1036.15 2389.32 971.996 2374.1 867.338 2354.11C885.551 2279.6 871.712 2203.95 815.266 2135.49C769.569 2080.07 672.422 2036.17 568.959 2070.61C490.64 2096.67 448.254 2156.11 424.274 2205.51C401.194 2196.39 355.524 2173.04 334.125 2161.95C283.246 2135.59 232.262 2108.01 182.021 2081.11Z"/><path d="M424.274 2205.51C448.254 2156.11 490.64 2096.67 568.959 2070.61C672.422 2036.17 769.569 2080.07 815.266 2135.49C871.712 2203.95 885.551 2279.6 867.338 2354.11L866.891 2355.71C831.372 2477.73 652.237 2617.02 480.835 2464.52C399.012 2391.73 392.944 2289.55 424.274 2205.51ZM666.841 2494.22C683.422 2491.03 694.358 2488.3 701.602 2477.72C740.008 2421.6 740.77 2336.59 706.861 2280.07C687.437 2247.69 637.115 2206.09 584.596 2191.6C555.825 2183.66 530.63 2183.92 500.389 2185.12C410.605 2202.32 437.926 2354.88 462.934 2397.09C496.868 2454.37 554.954 2503.8 666.841 2494.22Z"/><path fill="#FB6B6E" d="M1359.92 894.605L1436.37 698.016C1456.32 646.775 1477.65 528.356 1600.63 539.082C1654.81 543.807 1687.64 586.752 1700.61 614.673C1766.82 757.178 1817.3 903.951 1882.05 1046.45C1891.89 1075.36 1910.69 1114.46 1923.15 1144.03L2000.76 1331.29C2014.79 1365.51 2035.76 1402.93 2040.47 1437.94C2043.61 1461.33 2037.41 1484.79 2027.76 1507.4C2015.93 1535.08 1991.28 1571.44 1947.32 1586.06C1927.29 1592.72 1901.27 1594.42 1879.34 1590.5C1823.25 1580.48 1792.18 1535.31 1776.63 1504.91C1767.06 1486.21 1760.83 1464.52 1744.01 1447.7C1736.69 1440.37 1727.27 1435.65 1713.16 1433.88C1686.15 1430.49 1607.81 1433.62 1574.65 1433.7C1545.6 1433.77 1472.99 1430.64 1449.71 1436.83C1407.95 1447.95 1407.07 1562.52 1330.76 1590.34C1311.19 1597.47 1287.11 1598.25 1265.24 1594.93C1229.97 1589.57 1201.01 1572.95 1182.68 1554.65C1149.74 1521.78 1140.49 1481.59 1144.69 1443.83C1146.99 1423.11 1159.01 1403.39 1167.78 1383.43C1177.93 1360.34 1186.99 1337.05 1195.79 1313.77L1359.92 894.605Z"/><path fill="#F8539A" d="M1359.92 894.605L1436.37 698.016C1456.32 646.775 1477.65 528.356 1600.63 539.082C1654.81 543.807 1687.64 586.752 1700.61 614.673C1766.82 757.178 1817.3 903.951 1882.05 1046.45C1799.83 1049.09 1736.38 1028.44 1662.83 1011.84C1526.79 981.142 1452.39 965.613 1359.92 894.605Z"/><path d="M1577.81 1021.89C1653.27 1019.99 1648.67 1084.83 1668.52 1118.45C1691.37 1157.13 1684.81 1227.42 1601.11 1237.77C1590.48 1237.71 1569.11 1237.98 1560.67 1235.33C1463.68 1204.85 1503.2 1133.39 1527.86 1084.74C1538.67 1063.43 1544.69 1034.39 1577.81 1021.89Z"/><path fill="#2EA4B0" d="M2261.5 1000.95L2370.54 728.108C2389.58 680.064 2404.57 630.096 2432.74 583.791C2468.37 525.193 2570.79 521.072 2619.18 575.733C2644.23 604.611 2655.97 640.155 2669.67 671.874L2724.46 803.111L2862.67 1141.37C2890.99 1212.38 2919.72 1292.4 2951.27 1362.47C2968.07 1418.89 2990.85 1458.36 2967.22 1516.55C2956.42 1543.15 2935.18 1574.67 2893.82 1589.18C2871.87 1596.88 2847.98 1598.43 2823.53 1594.61C2715.75 1577.76 2734.12 1494.59 2689.53 1451.33C2679.84 1441.93 2667.21 1435.02 2648.87 1432.83C2609.87 1428.17 2552.5 1431.83 2511.83 1432.14C2484.68 1432.34 2428.16 1428.05 2405.21 1434.46C2363.09 1446.22 2361.04 1557.27 2277.03 1589.07C2258.6 1596.04 2236.4 1599.11 2215.03 1596C2181.01 1591.04 2149.76 1573.55 2131.48 1556.1C2098.28 1524.39 2086.11 1479.12 2089.53 1442.15C2091.29 1423.01 2100.96 1405.61 2108.41 1387.17L2135.81 1317.47L2261.5 1000.95Z"/><path fill="#58AB8B" d="M2261.5 1000.95C2320.11 1051.26 2375.49 1098.1 2442.04 1145.07C2435.7 1197.25 2471.65 1258.63 2580.41 1232.06C2686.69 1291.64 2811.68 1337.05 2951.27 1362.47C2968.07 1418.89 2990.85 1458.36 2967.22 1516.55C2956.42 1543.15 2935.18 1574.67 2893.82 1589.18C2871.87 1596.88 2847.98 1598.43 2823.53 1594.61C2715.75 1577.76 2734.12 1494.59 2689.53 1451.33C2679.84 1441.93 2667.21 1435.02 2648.87 1432.83C2609.87 1428.17 2552.5 1431.83 2511.83 1432.14C2484.68 1432.34 2428.16 1428.05 2405.21 1434.46C2363.09 1446.22 2361.04 1557.27 2277.03 1589.07C2258.6 1596.04 2236.4 1599.11 2215.03 1596C2181.01 1591.04 2149.76 1573.55 2131.48 1556.1C2098.28 1524.39 2086.11 1479.12 2089.53 1442.15C2091.29 1423.01 2100.96 1405.61 2108.41 1387.17L2135.81 1317.47L2261.5 1000.95Z"/><path d="M2442.04 1145.07C2444.98 1125.74 2481.36 1035.32 2502.32 1024.58C2511.21 1020.03 2523.33 1018.26 2534.81 1018.97C2547.21 1019.74 2557.69 1023.42 2565.46 1029.21C2581.58 1041.23 2617.59 1122.92 2621.9 1141.81C2624.56 1153.49 2624.72 1165.31 2622.12 1177C2617.45 1198.05 2602.98 1215.83 2580.41 1232.06C2471.65 1258.63 2435.7 1197.25 2442.04 1145.07Z"/><path fill="#58AB8B" d="M2411.42 1830.53C2426.13 1806.58 2441.82 1786.86 2481.03 1774.34C2534.56 1757.24 2602.08 1783.59 2619.67 1814.91C2657.18 1881.66 2682.62 1955.27 2713.89 2023.27L2846.45 2341.04C2877.74 2417.64 2907.91 2502.47 2944.35 2577.78C2958.38 2624.5 2974.57 2666.89 2961.7 2714.88C2953.55 2745.23 2933.6 2778.32 2889.85 2796.64C2869.07 2805.33 2846.79 2809.01 2821.75 2805.98C2758.27 2798.28 2722.48 2754.57 2708.38 2720.33C2701.11 2702.66 2698.15 2679.15 2680.6 2664.17C2673.75 2658.32 2666.32 2655.86 2654.7 2654.71C2611.55 2650.44 2560.02 2653.8 2516.02 2654.01C2490.97 2654.13 2424.23 2651.44 2403.53 2656.6C2359.21 2667.63 2364.92 2767.6 2287.86 2798.82C2267.62 2807.02 2241.79 2809.75 2218 2806.6C2179.62 2801.51 2149.66 2783.33 2130.08 2763.73C2094.71 2728.3 2088.58 2685.03 2093.27 2644.66C2095.94 2621.62 2106.75 2599.07 2115.68 2576.68L2149.82 2490.91C2187.85 2393.85 2223.81 2296.44 2263.81 2199.68L2359.09 1956.41C2377.02 1910.52 2384.34 1875.38 2411.42 1830.53Z"/><path fill="#A7A969" d="M2263.81 2199.68C2329.77 2244.02 2389.66 2283.64 2460 2325.44C2442.86 2367.61 2420.38 2409.95 2460.67 2450.47C2479.27 2469.18 2508.35 2469.14 2540.42 2468.19C2568.14 2467.38 2573.53 2466.71 2592.25 2453.72C2671.74 2483.38 2752.34 2512.92 2833.59 2540.79C2859.92 2549.83 2917.79 2571.41 2944.35 2577.78C2958.38 2624.5 2974.57 2666.89 2961.7 2714.88C2953.55 2745.23 2933.6 2778.32 2889.85 2796.64C2869.07 2805.33 2846.79 2809.01 2821.75 2805.98C2758.27 2798.28 2722.48 2754.57 2708.38 2720.33C2701.11 2702.66 2698.15 2679.15 2680.6 2664.17C2673.75 2658.32 2666.32 2655.86 2654.7 2654.71C2611.55 2650.44 2560.02 2653.8 2516.02 2654.01C2490.97 2654.13 2424.23 2651.44 2403.53 2656.6C2359.21 2667.63 2364.92 2767.6 2287.86 2798.82C2267.62 2807.02 2241.79 2809.75 2218 2806.6C2179.62 2801.51 2149.66 2783.33 2130.08 2763.73C2094.71 2728.3 2088.58 2685.03 2093.27 2644.66C2095.94 2621.62 2106.75 2599.07 2115.68 2576.68L2149.82 2490.91C2187.85 2393.85 2223.81 2296.44 2263.81 2199.68Z"/><path fill="#2EA4B0" d="M2411.42 1830.53C2426.13 1806.58 2441.82 1786.86 2481.03 1774.34C2534.56 1757.24 2602.08 1783.59 2619.67 1814.91C2657.18 1881.66 2682.62 1955.27 2713.89 2023.27C2576.72 2016.82 2477.72 1893.83 2411.42 1830.53Z"/><path d="M2460 2325.44C2463.22 2315.15 2476.11 2282.46 2476.47 2276.23C2478.55 2240.56 2556.23 2231.97 2568.99 2260.43C2594.93 2318.31 2651.33 2402.16 2592.25 2453.72C2573.53 2466.71 2568.14 2467.38 2540.42 2468.19C2508.35 2469.14 2479.27 2469.18 2460.67 2450.47C2420.38 2409.95 2442.86 2367.61 2460 2325.44Z"/><path fill="#2EA4B0" d="M3472.92 1291.25C3477.88 1253.9 3473.58 1214.2 3432.38 1183.34C3390.66 1152.09 3343.7 1169.93 3290.54 1155.25C3255.31 1145.53 3222.6 1129.45 3195.28 1113.22C3063.38 1034.87 3034.71 901.879 3045.57 795.147C3053.92 713.085 3090.26 620.025 3198.38 564.118C3251.54 536.633 3315.22 517.912 3387.35 521.679C3483 526.674 3561.08 560.639 3622.25 603.02C3678.8 642.202 3689.03 681.558 3682.27 732.398C3678.24 762.646 3657.9 806.052 3617.14 826.437C3600.65 834.68 3578.19 837.835 3555.41 836.36C3479.53 830.543 3430.77 752.007 3343.31 784.745C3314.7 795.453 3301.73 817.719 3296.29 837.123C3283.83 881.55 3325.35 941.766 3408.01 947.648C3430.25 949.23 3453.67 948.52 3475.91 950.397C3525.98 953.952 3587.8 987.499 3618.62 1010.72C3723.58 1089.8 3749.11 1222.04 3731.36 1320.61C3729.1 1333.16 3724.5 1349.84 3720.62 1362.12C3638.72 1338.3 3554.09 1315.69 3472.92 1291.25Z"/><path fill="#FCB52C" d="M1268.56 1879.46C1275.52 1847.65 1293.05 1805.84 1339.78 1785.85C1430.36 1747.1 1515.79 1806.75 1525.36 1858.84C1531.76 1893.24 1530.36 1925.71 1530.84 1959.44L1531.69 2152.51L1531.92 2327.53C1531.89 2368.49 1527.6 2413.89 1539.77 2453.94C1552.98 2497.41 1597.59 2549.65 1685.99 2527.93C1758.84 2599.63 1821.8 2652.23 1908.49 2718.23C1854.21 2775.63 1728.73 2820.95 1616.69 2808.29C1413.94 2785.38 1310.04 2646.61 1277.42 2536.42C1258.87 2473.75 1264.56 2401.59 1264.74 2337.92L1265.28 2085.57L1265.48 1951.99C1265.51 1934.1 1263.87 1895.54 1268.56 1879.46Z"/><path fill="#A7A969" d="M1268.56 1879.46C1275.52 1847.65 1293.05 1805.84 1339.78 1785.85C1430.36 1747.1 1515.79 1806.75 1525.36 1858.84C1531.76 1893.24 1530.36 1925.71 1530.84 1959.44L1531.69 2152.51C1441.01 2070.6 1351.03 1965.14 1268.56 1879.46Z"/><path fill="#F8539A" d="M777.056 1176.54C724.53 1144.36 657.735 1175.31 589.787 1144.57C339.315 1031.25 338.892 756.343 485.027 604.614C568.462 517.984 766.803 502.669 893.699 560.53C958.571 590.109 1015.63 621.667 1027.55 672.924C1042.66 727.859 1037.25 817.996 924.847 834.587C824.178 849.446 761.536 722.342 664.687 797.324C610.716 839.109 653.389 936.624 744.108 946.315C786.753 950.871 841.06 939.412 887.079 962.788C999.861 1011.16 1047.16 1091.37 1075.31 1168.41C1031.81 1182.79 910.022 1187.04 860.525 1183.09C837.484 1181.26 797.777 1176.93 777.056 1176.54Z"/><path fill="#A7A969" d="M3109.22 1783.78L3377.73 1783.14C3405.34 1783.13 3499.82 1782.02 3516.83 1785.74C3644.83 1813.74 3657.72 1967.16 3570.52 2019.55C3534.1 2041.43 3465.33 2037.72 3422.08 2037.12C3367.36 2055.05 3378.17 2104.64 3377.5 2136.96L3378.11 2465.19C3274.84 2409.22 3204.55 2347.8 3102.19 2290.95L3102.34 2186.94C3102.31 2153.3 3108.13 2098.64 3089.16 2067.73C3066.5 2030.82 2995.96 2056.07 2952.15 2043.52C2912.95 2032.28 2883.23 2012.61 2868.67 1987.83C2839.35 1937.92 2829.57 1872.59 2866.27 1823.43C2880.59 1807.62 2903.45 1788.89 2934.26 1785.85C2988.02 1780.56 3054.76 1783.35 3109.22 1783.78Z"/><path fill="#2EA4B0" d="M3109.22 1783.78L3377.73 1783.14C3405.34 1783.13 3499.82 1782.02 3516.83 1785.74C3644.83 1813.74 3657.72 1967.16 3570.52 2019.55C3534.1 2041.43 3465.33 2037.72 3422.08 2037.12C3386.01 1987.13 3295.51 1927.27 3239.05 1886.43C3192.8 1852.96 3151.11 1819.28 3109.22 1783.78Z"/><path fill="#58AB8B" d="M2866.27 1823.43C2880.59 1807.62 2903.45 1788.89 2934.26 1785.85C2988.02 1780.56 3054.76 1783.35 3109.22 1783.78C3151.11 1819.28 3192.8 1852.96 3239.05 1886.43C3295.51 1927.27 3386.01 1987.13 3422.08 2037.12C3367.36 2055.05 3378.17 2104.64 3377.5 2136.96C3376.83 2131.52 3377.09 2123.02 3376.95 2117.32C3298.09 2074.59 3235.71 2039 3161.28 1993.08C3054 1926.91 3003.52 1869.83 2866.27 1823.43Z"/><path fill="#2EA4B0" d="M4486.26 2183.31L4484.35 1972.27C4484.28 1914.14 4468.78 1831.7 4540.85 1786.35C4559.04 1774.9 4591.4 1766.82 4618.38 1767.95C4753.51 1778.87 4755.52 1882.57 4755.89 1939.22L4755.87 2067.98C4755.59 2092.08 4754.08 2117.07 4756 2141.16C4757.65 2161.78 4771.01 2173.66 4807.55 2173.84C4856.61 2174.07 4907.47 2174.68 4956.49 2173.19C4967.45 2172.83 4982.71 2164.58 4984.76 2158.1C4994.01 2128.88 4990.52 2095.54 4990.13 2065.81L4988.64 1945.98C4988.36 1912.88 4985.56 1882.04 4997.13 1849.73C5041.88 1724.81 5223.23 1749.62 5252.59 1861.26C5258.76 1884.73 5257.21 1907.26 5257.37 1930.97L5257.84 2016.82L5256.81 2353.51C5004.93 2290.2 4742.34 2239.68 4486.26 2183.31Z"/><path fill="#9879B1" d="M4486.26 2183.31C4742.34 2239.68 5004.93 2290.2 5256.81 2353.51L5256.26 2582.79C5256.19 2607.25 5255.82 2631.95 5255.9 2656.24C5256.53 2703.8 5253.16 2755.72 5196.58 2792.79C5153.57 2820.96 5086.73 2810.24 5047.16 2785.66C4980.92 2744.52 4988.38 2687.86 4988.71 2635.76L4989.97 2521.12C4990.43 2489.7 5005.58 2422.64 4922.64 2428.54C4892.08 2430.72 4791.48 2423.01 4774.46 2435.73C4743.06 2459.21 4755.19 2524.46 4754.93 2554.35C4668.25 2543.23 4561.5 2506.7 4486.15 2478.83L4486.26 2183.31Z"/><path fill="#FB6B6E" d="M3587.91 2228.27C3655.11 2286.56 3711.51 2327.96 3807.79 2369.65C3831.02 2379.7 3855.28 2395.2 3878.96 2404.46C3896.54 2439.43 3922.48 2475.29 3966.23 2501.48C3990.22 2515.84 4020.05 2526.86 4054.04 2529.84C4165.82 2539.63 4196.95 2469.06 4260.96 2470.52C4286.79 2471.1 4308.59 2483.01 4324.61 2494.17C4380.82 2533.29 4407.35 2589.82 4400.91 2640.83C4394.42 2692.29 4351.11 2737.34 4285.61 2770.31C4224.17 2801.23 4138.17 2817.88 4058.18 2813.35C3953.85 2807.44 3864.94 2767.46 3800.18 2720.3C3620.44 2589.41 3562.24 2393.28 3587.91 2228.27Z"/><path fill="#58AB8B" d="M1760.57 2298.36L1759.54 2016.1C1759.53 1966.53 1753.84 1908.16 1766.35 1859.85C1796.28 1744.31 2001.27 1745.47 2027.57 1861.07C2033.3 1886.21 2032.02 1909.9 2032.05 1935.21L2031.98 2031.72L2030.68 2382.06C2031.04 2407.02 2031.48 2432.12 2031.44 2457.08C2031.28 2544.23 1991.36 2646.39 1908.49 2718.23C1821.8 2652.23 1758.84 2599.63 1685.99 2527.93C1770.43 2492.71 1761.6 2430.25 1761.05 2375.52L1760.57 2298.36Z"/><path fill="#A7A969" d="M1760.81 2175.19C1833.14 2242.91 1925.3 2333.24 2030.68 2382.06C2031.04 2407.02 2031.48 2432.12 2031.44 2457.08C2031.28 2544.23 1991.36 2646.39 1908.49 2718.23C1821.8 2652.23 1758.84 2599.63 1685.99 2527.93C1770.43 2492.71 1761.6 2430.25 1761.05 2375.52L1760.57 2298.36L1760.81 2175.19Z"/><path fill="#FB6B6E" d="M777.056 1176.54C797.777 1176.93 837.484 1181.26 860.525 1183.09C910.022 1187.04 1031.81 1182.79 1075.31 1168.41C1092.71 1233.73 1097.02 1299.17 1077.38 1365.18C1046.9 1467.58 976.08 1591.58 779.902 1611.72C589.034 1631.31 419.115 1535.41 386.997 1427.04C375.516 1388.3 388.517 1330.4 427.391 1297.57C453.164 1276.87 502.787 1252.39 546.117 1273.65C601.473 1300.82 652.168 1361.91 735.534 1360.26C818.402 1353.82 838.868 1272.97 822.831 1233.46C812.566 1208.17 803.424 1195.56 777.056 1176.54Z"/><path fill="#58AB8B" d="M3720.62 1362.12C3715.57 1378.19 3709.21 1393.23 3703.11 1409.36C3661.9 1518.25 3521.98 1639.92 3309.63 1608.36C3212.51 1592.05 3124.27 1544.86 3071.82 1494.28C3010.93 1435.55 3012.12 1310.79 3122.14 1272.13C3205.57 1242.81 3282.05 1348.23 3361.56 1356.21C3431.08 1363.18 3458.56 1324.32 3472.92 1291.25C3554.09 1315.69 3638.72 1338.3 3720.62 1362.12Z"/><path fill="#9879B1" d="M3733.66 1922.25C3798.24 1860.23 3885.7 1800.44 4009.38 1782.88C4089.58 1771.49 4172.13 1781.72 4241.62 1807.69C4307.52 1832.31 4364.3 1872.14 4381.45 1918.26C4399.34 1966.37 4380.71 2017.78 4336.31 2058.99C4323.35 2071.02 4295.74 2093.43 4271.35 2096.17C4213.51 2102.68 4157.87 2021.96 4013.72 2071.92C3976.89 2044.52 3919.11 2020.71 3873.54 1997.68C3824.3 1972.79 3780.37 1948.84 3733.66 1922.25Z"/><path fill="#FCB52C" d="M3102.19 2290.95C3204.55 2347.8 3274.84 2409.22 3378.11 2465.19L3378.58 2616.22C3378.71 2668.75 3386.98 2753.27 3323.16 2789.44C3191.15 2864.25 3098.35 2730.95 3102.52 2666.83C3104.99 2628.91 3102.78 2592.88 3102.78 2558.92L3102.19 2290.95Z"/><path fill="#F8539A" d="M3587.91 2228.27C3587.82 2216.57 3594.25 2186.92 3596.94 2174.94C3615.66 2091.42 3660.59 1994.94 3733.66 1922.25C3780.37 1948.84 3824.3 1972.79 3873.54 1997.68C3919.11 2020.71 3976.89 2044.52 4013.72 2071.92C3846.93 2155.33 3834.6 2285.46 3878.96 2404.46C3855.28 2395.2 3831.02 2379.7 3807.79 2369.65C3711.51 2327.96 3655.11 2286.56 3587.91 2228.27Z"/><path fill="#F8539A" d="M4486.15 2478.83C4561.5 2506.7 4668.25 2543.23 4754.93 2554.35L4755.23 2640.72C4755.35 2690.07 4762.85 2749.86 4702.87 2787.87C4606.41 2849 4510.46 2774.24 4491.99 2717.7C4480.18 2681.53 4484.52 2646.16 4484.91 2610.33L4486.15 2478.83Z"/></svg>